<?xml version="1.0" encoding="UTF-8" standalone="no"?>
<!-- Created with Inkscape (http://www.inkscape.org/) -->

<svg
   width="156mm"
   height="13mm"
   viewBox="0 0 156 13"
   version="1.1"
   id="svg5"
   inkscape:version="1.2.2 (b0a8486541, 2022-12-01)"
   sodipodi:docname="keczup.svg"
   xmlns:inkscape="http://www.inkscape.org/namespaces/inkscape"
   xmlns:sodipodi="http://sodipodi.sourceforge.net/DTD/sodipodi-0.dtd"
   xmlns="http://www.w3.org/2000/svg"
   xmlns:svg="http://www.w3.org/2000/svg">
  <sodipodi:namedview
     id="namedview7"
     pagecolor="#ffffff"
     bordercolor="#000000"
     borderopacity="0.25"
     inkscape:showpageshadow="2"
     inkscape:pageopacity="0.0"
     inkscape:pagecheckerboard="0"
     inkscape:deskcolor="#d1d1d1"
     inkscape:document-units="mm"
     showgrid="false"
     inkscape:zoom="1.4142136"
     inkscape:cx="256.67975"
     inkscape:cy="6.3639609"
     inkscape:window-width="1900"
     inkscape:window-height="976"
     inkscape:window-x="1930"
     inkscape:window-y="52"
     inkscape:window-maximized="1"
     inkscape:current-layer="layer1"
     inkscape:lockguides="true" />
  <defs
     id="defs2" />
  <g
     inkscape:label="Layer 1"
     inkscape:groupmode="layer"
     id="layer1">
    <path
       id="path33318"
       style="fill:#ff2a2a;stroke-width:0.270293"
       d="m 101.21312,14.505632 c 2.7661,-2.7e-4 11.94834,-1.979755 13.36663,-2.861145 1.41829,-0.881389 -0.006,-0.162738 0.23874,0.06816 0.2442,0.230903 1.1903,0.691016 1.78852,0.690879 0.59823,-1.37e-4 1.12853,-0.220416 1.31672,-0.325869 0.18819,-0.105453 -0.52555,6e-5 0.0212,0 0.54674,-6.1e-5 1.7498,-0.277412 3.01532,-0.335985 1.26551,-0.05857 3.79398,0.01082 5.00486,0.205373 1.21088,0.194551 1.63768,0.542749 2.68666,0.542677 1.04897,-7.3e-5 -0.9271,-0.300265 2.70216,-0.551472 3.62926,-0.251207 14.28856,-1.456937 16.90026,-1.823727 2.61169,-0.3667899 0.89337,0.494717 2.33991,0.494742 1.44653,2.5e-5 2.99427,-0.235369 3.32188,-0.7429195 0.32762,-0.5075507 0.60331,-1.7471714 0.75703,-2.0335597 0.15373,-0.2863883 -0.51182,-0.4017209 0.20765,-0.8890057 0.71947,-0.4872844 1.95944,-1.0173079 1.96008,-2.4275313 6.5e-4,-1.4102245 -4.31971,-3.4619815 -6.81043,-3.4618725 -2.49072,1.1e-4 -2.33988,0.652623 -3.46749,0.483308 -1.12761,-0.169315 -3.0045,-0.998176 -4.77439,-0.998278 -1.76989,-1.03e-4 -1.97268,0.538016 -4.01836,0.620955 -2.04567,0.08294 -4.66371,-0.354389 -9.25628,-0.354455 -4.59256,-6.5e-5 -12.87698,1.291823 -16.56695,1.227399 -3.68996,-0.06442 -6.51023,-1.464762 -10.38438,-1.464874 -3.874138,-1.12e-4 -6.51784,1.07351 -9.424744,1.135926 -2.906904,0.06241 -6.250072,-0.935682 -11.607043,-0.935391 -5.356971,2.9e-4 -13.404655,1.395835 -15.388208,1.9517 -1.983553,0.555864 -1.36268,-0.184734 -2.584339,-0.184704 -1.221659,3e-5 -2.702885,0.696516 -4.193035,0.532122 -1.49015,-0.164394 -4.621558,-0.938581 -6.833168,-1.267858 -2.21161,-0.329276 -2.37891,-0.75234 -5.78156,-0.752446 -3.40265,-1.05e-4 -6.75799,2.009922 -8.91264,2.935027 -2.15465,0.9251045 -6.56218,-0.267141 -10.63604,-0.457362 -2.53541,-0.118386 -4.89071,-1.799848 -7.19751,-1.886611 -2.00446,-0.07539 -3.09357,1.959059 -3.88605,2.391467 -2.09851,1.1450315 -1.01652,-0.444314 -5.1940205,-1.656902 -2.22939,-0.647117 -6.09594,0.01257 -8.17568,1.7397955 -1.81736005,1.5093061 -2.11358005,3.9315578 -0.81488005,5.7278291 2.78492005,3.8518921 6.82502005,0.5399231 8.19320005,0.8179351 1.3681805,0.278011 5.4057805,0.06562 7.9821405,0.148095 2.57635,0.08247 2.69409,2.258067 11.83329,2.257887 9.1392,-1.79e-4 15.51847,-0.900588 17.50074,-1.272695 1.98227,-0.372107 -0.097,0.06619 1.52342,0.06597 1.62044,-2.19e-4 4.56698,-1.471425 6.4456,-1.615275 1.87862,-0.14385 5.152398,1.193761 7.989187,1.193536 2.83679,-2.26e-4 4.930764,-1.381861 6.819739,-0.806099 1.888975,0.575762 6.385795,2.456811 10.534241,2.456556 4.148446,-2.55e-4 5.701059,-1.70549 8.4677,-1.210248 2.766641,0.495242 10.355204,2.628854 12.99042,2.628947 2.63522,9.3e-5 -2.766196,2.7e-4 -1e-4,-10e-7 z"
       sodipodi:nodetypes="zzzzzzzzzzzzzzzzzzzzzzzzzzzzzzzsssssszzzzzzzzzzzz" />
  </g>
</svg>
