<?xml version="1.0" encoding="UTF-8" standalone="no"?>
<!-- Created with Inkscape (http://www.inkscape.org/) -->

<svg
   width="156mm"
   height="13mm"
   viewBox="0 0 156 13"
   version="1.1"
   id="svg5"
   inkscape:version="1.2.2 (b0a8486541, 2022-12-01)"
   sodipodi:docname="majonez.svg"
   xmlns:inkscape="http://www.inkscape.org/namespaces/inkscape"
   xmlns:sodipodi="http://sodipodi.sourceforge.net/DTD/sodipodi-0.dtd"
   xmlns="http://www.w3.org/2000/svg"
   xmlns:svg="http://www.w3.org/2000/svg">
  <sodipodi:namedview
     id="namedview7"
     pagecolor="#ffffff"
     bordercolor="#000000"
     borderopacity="0.25"
     inkscape:showpageshadow="2"
     inkscape:pageopacity="0.0"
     inkscape:pagecheckerboard="0"
     inkscape:deskcolor="#d1d1d1"
     inkscape:document-units="mm"
     showgrid="false"
     inkscape:zoom="1.4142136"
     inkscape:cx="256.67975"
     inkscape:cy="6.3639609"
     inkscape:window-width="1900"
     inkscape:window-height="976"
     inkscape:window-x="1930"
     inkscape:window-y="52"
     inkscape:window-maximized="1"
     inkscape:current-layer="layer1"
     inkscape:lockguides="true" />
  <defs
     id="defs2" />
  <g
     inkscape:label="Layer 1"
     inkscape:groupmode="layer"
     id="layer1">
    <path
       id="path33318"
       style="fill:#fff6d5;stroke-width:0.270293"
       d="m 55.575892,-0.39354831 c -2.766097,2.7054e-4 -11.948338,1.97975491 -13.366626,2.86114491 -1.418288,0.8813899 0.0055,0.1627385 -0.238745,-0.068164 -0.244199,-0.230903 -1.190294,-0.6910158 -1.788522,-0.690879 -0.598228,1.369e-4 -1.128528,0.2204167 -1.316715,0.3258697 -0.188187,0.105453 0.525551,-6.06e-5 -0.02119,0 -0.546741,6.06e-5 -1.749805,0.2774118 -3.015319,0.3359845 C 34.563261,2.4289796 32.034791,2.3595851 30.823914,2.1650346 29.613037,1.9704842 29.186232,1.6222855 28.137256,1.6223583 27.08828,1.622431 29.064355,1.9226229 25.435096,2.17383 21.805837,2.4250372 11.146531,3.630767 8.5348354,3.9975571 5.9231393,4.3643472 7.6414624,3.5028406 6.1949264,3.5028156 4.7483906,3.5027906 3.2006557,3.7381842 2.873041,4.2457348 2.5454264,4.7532855 2.2697381,5.9929062 2.1160096,6.2792945 1.9622811,6.5656828 2.6278378,6.6810154 1.9083672,7.1683002 1.1888966,7.6555846 -0.05107569,8.1856081 -0.05171979,9.5958315 c -6.441e-4,1.4102245 4.31971829,3.4619815 6.81043619,3.4618725 2.490718,-1.1e-4 2.339882,-0.652623 3.4674886,-0.483308 1.127607,0.169315 3.004495,0.998176 4.774386,0.998278 1.769891,1.03e-4 1.972684,-0.538016 4.018359,-0.620955 2.045675,-0.08294 4.663716,0.354389 9.256282,0.354455 4.592566,6.5e-5 12.87698,-1.291823 16.566948,-1.227399 3.689968,0.06442 6.510237,1.464762 10.384379,1.464874 3.874142,1.12e-4 6.517844,-1.07351 9.424748,-1.135926 2.906904,-0.06241 6.250072,0.935682 11.607043,0.935391 5.356971,-2.9e-4 13.404655,-1.395835 15.388208,-1.9517 1.983553,-0.555864 1.36268,0.184734 2.584339,0.184704 1.221659,-3e-5 2.702885,-0.696516 4.193035,-0.532122 1.49015,0.164394 4.621558,0.938581 6.833168,1.267858 2.21161,0.329276 2.37891,0.75234 5.78156,0.752446 3.40265,1.05e-4 6.75799,-2.009922 8.91264,-2.935027 2.15465,-0.9251045 6.56218,0.267141 10.63604,0.457362 2.53541,0.118386 4.89071,1.799848 7.19751,1.886611 2.00446,0.07539 3.09357,-1.959059 3.88605,-2.391467 2.09851,-1.1450315 1.01652,0.444314 5.19402,1.656902 2.22939,0.647117 6.09594,-0.01257 8.17568,-1.7397955 1.81735,-1.5093061 2.11357,-3.9315578 0.81487,-5.7278291 -2.78492,-3.85189258 -6.82502,-0.539923 -8.1932,-0.8179349 -1.36818,-0.2780118 -5.40578,-0.065624 -7.98214,-0.1480956 -2.57635,-0.082472 -2.69409,-2.2580666 -11.83329,-2.2578873 -9.1392,1.793e-4 -15.51847,0.9005881 -17.50074,1.272695 -1.98227,0.372107 0.097,-0.066185 -1.52342,-0.065966 -1.62044,2.19e-4 -4.56698,1.4714257 -6.4456,1.615276 C 100.49846,4.0129938 97.224682,2.6753815 94.387893,2.6756072 91.551103,2.675833 89.457129,4.0574684 87.568154,3.481706 85.679179,2.9059438 81.182359,1.0248946 77.033913,1.0251499 c -4.148446,2.553e-4 -5.701059,1.7054896 -8.4677,1.2102475 -2.766641,-0.495242 -10.355204,-2.62885311 -12.990421,-2.62894614 -2.635217,-9.302e-5 2.766197,-2.7012e-4 1e-4,4.3e-7 z"
       sodipodi:nodetypes="zzzzzzzzzzzzzzzzzzzzzzzzzzzzzzzsssssszzzzzzzzzzzz" />
  </g>
</svg>
