<?xml version="1.0" encoding="UTF-8" standalone="no"?>
<!-- Created with Inkscape (http://www.inkscape.org/) -->

<svg
   width="177mm"
   height="25mm"
   viewBox="0 0 177 25"
   version="1.1"
   id="svg5"
   inkscape:version="1.2.2 (b0a8486541, 2022-12-01)"
   sodipodi:docname="zytni.svg"
   xmlns:inkscape="http://www.inkscape.org/namespaces/inkscape"
   xmlns:sodipodi="http://sodipodi.sourceforge.net/DTD/sodipodi-0.dtd"
   xmlns="http://www.w3.org/2000/svg"
   xmlns:svg="http://www.w3.org/2000/svg">
  <sodipodi:namedview
     id="namedview7"
     pagecolor="#ffffff"
     bordercolor="#000000"
     borderopacity="0.25"
     inkscape:showpageshadow="2"
     inkscape:pageopacity="0.0"
     inkscape:pagecheckerboard="0"
     inkscape:deskcolor="#d1d1d1"
     inkscape:document-units="mm"
     showgrid="false"
     inkscape:zoom="0.7071068"
     inkscape:cx="459.6194"
     inkscape:cy="89.095452"
     inkscape:window-width="1900"
     inkscape:window-height="976"
     inkscape:window-x="1930"
     inkscape:window-y="52"
     inkscape:window-maximized="1"
     inkscape:current-layer="layer1" />
  <defs
     id="defs2" />
  <g
     inkscape:label="Layer 1"
     inkscape:groupmode="layer"
     id="layer1">
    <path
       id="path617"
       style="fill:#6b3e1e;fill-opacity:1;stroke-width:0.287552"
       d="m 175.84021,11.230251 c 0.37196,14.19759 0.0961,13.650202 -86.717584,12.68491 C 2.208748,22.948755 1.7076834,28.561195 2.0773676,11.230251 2.4216287,-4.9088449 16.401838,1.2587368 88.749872,1.6282219 175.66794,2.072117 175.46247,-3.1878367 175.84021,11.230251 Z"
       sodipodi:nodetypes="sssss" />
    <path
       id="path29448"
       style="fill:#deaa87;stroke-width:0.344643"
       d="M 4.8837683,13.45837 C 3.5195332,9.3456271 6.7549537,9.1531028 10.421402,7.9369076 14.087852,6.7207125 17.553057,7.2209133 18.161154,9.0541382 18.769252,10.887363 16.289969,13.359406 12.623519,14.575601 8.95707,15.791796 6.2702242,17.638102 4.8837683,13.45837 Z"
       sodipodi:nodetypes="sssss" />
    <path
       id="path29448-5"
       style="fill:#deaa87;stroke-width:0.15923"
       d="m 12.872327,26.818821 c -2.396622,0.62344 -2.709269,-0.50377 -3.6652652,-1.745896 -0.9559964,-1.242124 -0.8649759,-2.474342 0.203297,-2.752236 1.0682772,-0.277893 2.7092692,0.503771 3.6652692,1.745895 0.955996,1.242126 2.232354,2.118642 -0.203293,2.752237 z"
       sodipodi:nodetypes="sssss" />
    <path
       id="path29448-5-9"
       style="fill:#deaa87;stroke-width:0.187174"
       d="m 17.356368,18.104407 c -1.259191,-1.34259 1.588434,-1.484773 4.801503,-1.979661 3.213066,-0.494888 6.272767,-0.410936 6.834042,0.187512 0.561268,0.59845 -1.588433,1.484772 -4.801499,1.979663 -3.213073,0.494888 -5.554348,1.17694 -6.834046,-0.187514 z"
       sodipodi:nodetypes="sssss" />
    <path
       id="path29448-5-9-2"
       style="fill:#deaa87;stroke-width:0.258182"
       d="m 26.981714,31.636474 c -2.036837,1.497359 -3.361314,-1.267527 -5.479846,-4.321858 -2.118525,-3.054324 -3.099928,-6.071404 -2.192025,-6.73884 0.907912,-0.667429 3.361316,1.267527 5.479847,4.321852 2.118535,3.054335 4.26204,5.217102 2.192024,6.738846 z"
       sodipodi:nodetypes="sssss" />
    <path
       id="path29448-2"
       style="fill:#deaa87;stroke-width:0.255164"
       d="m 42.021361,20.205922 c 2.530821,-2.015947 4.128103,-0.349332 6.700708,1.226811 2.572605,1.576144 3.743613,3.582315 2.615517,4.480911 -1.128095,0.898593 -4.128103,0.349333 -6.700708,-1.226815 -2.572607,-1.576141 -5.187561,-2.432121 -2.615517,-4.480907 z"
       sodipodi:nodetypes="sssss" />
    <path
       id="path29448-5-8"
       style="fill:#deaa87;stroke-width:0.175848"
       d="m 32.573289,26.287638 c -2.028687,-1.843384 -1.085226,-2.727392 -0.404178,-4.256544 0.681046,-1.529152 1.966199,-2.102674 2.870469,-1.281001 0.904269,0.821674 1.085225,2.727394 0.40418,4.256548 -0.68105,1.529149 -0.808747,3.154406 -2.870467,1.281006 z"
       sodipodi:nodetypes="sssss" />
    <path
       id="path29448-5-9-9"
       style="fill:#deaa87;stroke-width:0.206709"
       d="m 36.493966,29.936967 c -0.294299,-1.931171 2.451053,-0.502234 5.767576,0.800885 3.316518,1.303119 6.111427,3.057318 6.242605,3.918127 0.131174,0.860798 -2.451049,0.502231 -5.767571,-0.800882 -3.316525,-1.303121 -5.943519,-1.955507 -6.242612,-3.918126 z"
       sodipodi:nodetypes="sssss" />
    <path
       id="path29448-5-9-2-7"
       style="fill:#deaa87;stroke-width:0.285127"
       d="M 41.13577,9.1439846 C 40.981104,12.02925 37.818462,10.98079 33.880337,10.374054 29.942224,9.7673233 26.805637,8.2328966 26.874574,6.9468124 c 0.06894,-1.2860867 3.317304,-1.8368041 7.255424,-1.2300775 3.93813,0.6067322 7.162953,0.494994 7.005772,3.4272497 z"
       sodipodi:nodetypes="sssss" />
    <path
       id="path29448-3"
       style="fill:#deaa87;stroke-width:0.344643"
       d="m 102.2545,15.719094 c 3.05188,3.076002 0.24014,4.688175 -2.502071,7.408885 -2.742213,2.72071 -6.067998,3.814782 -7.428353,2.443676 -1.360355,-1.371104 -0.240141,-4.688175 2.502069,-7.408885 2.742211,-2.72071 4.326757,-5.569781 7.428355,-2.443676 z"
       sodipodi:nodetypes="sssss" />
    <path
       id="path29448-5-6"
       style="fill:#deaa87;stroke-width:0.15923"
       d="m 89.155095,7.3093126 c 1.868817,-1.6248057 2.650411,-0.7544841 4.05928,-0.06754 1.408869,0.6869414 1.875695,1.8309341 1.042688,2.5551786 -0.833012,0.7242438 -2.650413,0.7544818 -4.059286,0.067542 -1.408869,-0.6869433 -2.941936,-0.90391 -1.04269,-2.5551771 z"
       sodipodi:nodetypes="sssss" />
    <path
       id="path29448-5-9-1"
       style="fill:#deaa87;stroke-width:0.187174"
       d="m 89.017415,17.108736 c 1.725098,0.641989 -0.761766,2.036511 -3.418943,3.909516 -2.657173,1.873002 -5.434587,3.159387 -6.203535,2.873225 -0.768942,-0.286165 0.761766,-2.036511 3.418939,-3.909514 2.657179,-1.873006 4.45035,-3.525672 6.203539,-2.873227 z"
       sodipodi:nodetypes="sssss" />
    <path
       id="path29448-5-9-2-2"
       style="fill:#deaa87;stroke-width:0.258182"
       d="m 74.375852,9.2736384 c 1.157725,-2.2473233 3.57421,-0.3606764 6.830596,1.4318226 3.25638,1.792495 5.477857,4.057658 4.961811,5.059384 -0.516057,1.001724 -3.574211,0.360677 -6.830596,-1.431817 -3.25639,-1.7925 -6.138397,-2.775464 -4.961811,-5.0593896 z"
       sodipodi:nodetypes="sssss" />
    <path
       id="path29448-2-9"
       style="fill:#deaa87;stroke-width:0.255164"
       d="m 65.993989,26.202691 c -1.369331,2.931556 -3.541391,2.149843 -6.546621,1.88317 -3.005231,-0.266677 -4.946651,-1.542167 -4.336282,-2.848889 0.61037,-1.30672 3.541389,-2.149845 6.546622,-1.883166 3.005231,0.266671 5.727914,-0.130436 4.336281,2.848885 z"
       sodipodi:nodetypes="sssss" />
    <path
       id="path29448-5-8-3"
       style="fill:#deaa87;stroke-width:0.175848"
       d="m 71.74866,16.551935 c 2.637057,0.74804 2.185543,1.959536 2.256116,3.632005 0.07057,1.672467 -0.825101,2.757969 -2.000547,2.424534 -1.175445,-0.333433 -2.185543,-1.959539 -2.25612,-3.632008 -0.07057,-1.672467 -0.679453,-3.184758 2.000543,-2.424538 z"
       sodipodi:nodetypes="sssss" />
    <path
       id="path29448-5-9-9-1"
       style="fill:#deaa87;stroke-width:0.206709"
       d="m 67.871182,34.233454 c 1.122925,1.598457 -1.971499,1.540482 -5.521436,1.849353 -3.549929,0.308869 -6.833476,-0.01838 -7.33401,-0.730841 -0.500526,-0.712498 1.971497,-1.54048 5.521428,-1.849355 3.549939,-0.308871 6.192803,-0.893651 7.334018,0.730837 z"
       sodipodi:nodetypes="sssss" />
    <path
       id="path29448-5-9-1-3"
       style="fill:#deaa87;stroke-width:0.187174"
       d="m 54.287993,19.702519 c -1.556491,-0.982574 1.163749,-1.83667 4.148933,-3.124071 2.98518,-1.287402 5.96757,-1.975998 6.661364,-1.538024 0.693786,0.437977 -1.163751,1.83667 -4.148931,3.124072 -2.985186,1.287404 -5.07953,2.536598 -6.661366,1.538023 z"
       sodipodi:nodetypes="sssss" />
    <path
       id="path29448-5-9-2-2-7"
       style="fill:#deaa87;stroke-width:0.258182"
       d="M 52.993996,14.430253 C 51.399434,16.391927 49.421898,14.04924 46.603025,11.626211 43.78416,9.2031876 42.075206,6.5300994 42.785969,5.6556992 c 0.710773,-0.8743955 3.572099,0.3810139 6.390972,2.8040374 2.818874,2.4230294 5.437593,3.9768944 3.817055,5.9705164 z"
       sodipodi:nodetypes="sssss" />
    <path
       id="path29448-5-8-3-4"
       style="fill:#deaa87;stroke-width:0.175848"
       d="M 57.059871,7.8466068 C 54.632638,6.5729615 55.323321,5.480011 55.597712,3.828696 c 0.274394,-1.6513133 1.373893,-2.529743 2.455812,-1.9620243 1.081919,0.5677167 1.736549,2.3665986 1.462161,4.0179143 -0.274393,1.6513125 0.01099,3.2564118 -2.455808,1.9620289 z"
       sodipodi:nodetypes="sssss" />
    <path
       id="path29448-5-9-9-1-5"
       style="fill:#deaa87;stroke-width:0.206709"
       d="m 59.79687,4.4138659 c -0.770731,-1.7949947 2.245833,-1.1027821 5.783538,-0.6760517 3.537696,0.4267314 6.684063,1.421276 7.027609,2.2213827 0.34354,0.8001013 -2.245832,1.1027793 -5.783532,0.6760543 C 63.286779,6.2085195 60.580154,6.2380958 59.796868,4.4138703 Z"
       sodipodi:nodetypes="sssss" />
    <path
       id="path29448-5-9-2-7-9"
       style="fill:#deaa87;stroke-width:0.285127"
       d="m 71.709626,35.714904 c -1.145435,-2.65267 2.153373,-3.121119 5.950079,-4.330233 3.796696,-1.209115 7.288425,-1.230773 7.798998,-0.04837 0.510571,1.182408 -2.153367,3.121113 -5.950068,4.330235 -3.796711,1.209122 -6.634915,2.744234 -7.799009,0.04836 z"
       sodipodi:nodetypes="sssss" />
    <path
       id="path29448-3-4"
       style="fill:#deaa87;stroke-width:0.299499"
       d="m 111.4148,7.2009712 c 0.56354,-3.7231277 3.14549,-2.5976258 6.4646,-2.0952384 3.31912,0.50239 5.80616,2.2549915 5.55496,3.9145483 -0.25119,1.6595559 -3.1455,2.5976259 -6.46461,2.0952369 -3.31911,-0.502389 -6.12768,-0.130776 -5.55495,-3.9145468 z"
       sodipodi:nodetypes="sssss" />
    <path
       id="path29448-5-6-7"
       style="fill:#deaa87;stroke-width:0.138373"
       d="m 112.33913,20.696962 c -2.102,-0.461267 -1.9001,-1.457557 -2.15125,-2.796313 -0.25115,-1.338757 0.3048,-2.257357 1.24175,-2.051754 0.93695,0.205608 1.90009,1.457561 2.15125,2.796319 0.25115,1.338757 0.89449,2.520529 -1.24174,2.051754 z"
       sodipodi:nodetypes="sssss" />
    <path
       id="path29448-5-9-1-8"
       style="fill:#deaa87;stroke-width:0.162658"
       d="m 119.24554,15.713436 c -0.44642,-1.536023 1.81532,-0.524303 4.49908,0.358185 2.68377,0.882488 5.02069,2.152917 5.21968,2.837585 0.19899,0.684669 -1.81532,0.524304 -4.49908,-0.358182 -2.68376,-0.882489 -4.76598,-1.276551 -5.21968,-2.837588 z"
       sodipodi:nodetypes="sssss" />
    <path
       id="path29448-5-9-2-2-4"
       style="fill:#deaa87;stroke-width:0.224364"
       d="m 121.3701,29.987188 c -2.16761,0.3574 -2.10427,-2.306032 -2.54197,-5.506492 -0.4377,-3.20045 -0.009,-5.92407 0.95692,-6.083381 0.9662,-0.159307 2.10428,2.306036 2.54198,5.50649 0.4377,3.200461 1.24598,5.720167 -0.95693,6.083383 z"
       sodipodi:nodetypes="sssss" />
    <path
       id="path29448-2-9-5"
       style="fill:#deaa87;stroke-width:0.221742"
       d="m 137.52278,27.058268 c 2.75454,-0.564478 3.3352,1.355723 4.70696,3.590085 1.37176,2.234366 1.48846,4.249648 0.26064,4.501262 -1.22782,0.251614 -3.33519,-1.355719 -4.70696,-3.590087 -1.37176,-2.234362 -3.06005,-3.927576 -0.26064,-4.50126 z"
       sodipodi:nodetypes="sssss" />
    <path
       id="path29448-5-8-3-0"
       style="fill:#deaa87;stroke-width:0.152814"
       d="m 127.80848,28.046914 c -0.84517,-2.227079 0.23389,-2.540133 1.36384,-3.456287 1.12996,-0.91615 2.35136,-0.854098 2.72809,0.1386 0.37673,0.992704 -0.23389,2.540136 -1.36384,3.456293 -1.12995,0.91615 -1.86915,2.124744 -2.72809,-0.1386 z"
       sodipodi:nodetypes="sssss" />
    <path
       id="path29448-5-9-9-1-3"
       style="fill:#deaa87;stroke-width:0.179633"
       d="m 129.4077,32.418224 c 0.53284,-1.611799 2.09641,0.576593 4.15196,2.892551 2.05555,2.315953 3.52936,4.775818 3.29185,5.494265 -0.23752,0.718439 -2.09641,-0.576596 -4.15197,-2.892546 -2.05555,-2.315959 -3.83337,-3.856218 -3.29185,-5.494269 z"
       sodipodi:nodetypes="sssss" />
    <path
       id="path29448-5-9-2-7-9-6"
       style="fill:#deaa87;stroke-width:0.24778"
       d="m 141.19478,18.140963 c -1.25648,2.173954 -3.29317,0.115868 -6.10455,-1.905559 -2.81138,-2.021426 -4.63643,-4.445661 -4.07637,-5.414686 0.56007,-0.9690252 3.29316,-0.115876 6.10455,1.905549 2.81139,2.021433 5.35331,3.205335 4.07637,5.414696 z"
       sodipodi:nodetypes="sssss" />
    <path
       id="path29448-3-4-1"
       style="fill:#deaa87;stroke-width:0.299499"
       d="m 157.79768,8.5145829 c 0.56354,-3.7231287 3.1455,-2.5976258 6.46461,-2.0952384 3.31911,0.50239 5.80615,2.2549915 5.55496,3.9145485 -0.2512,1.659556 -3.1455,2.597626 -6.46461,2.095236 -3.31912,-0.502388 -6.12768,-0.130776 -5.55496,-3.9145461 z"
       sodipodi:nodetypes="sssss" />
    <path
       id="path29448-5-6-7-0"
       style="fill:#deaa87;stroke-width:0.138373"
       d="m 158.72202,22.010575 c -2.102,-0.461267 -1.9001,-1.457557 -2.15125,-2.796313 -0.25116,-1.338758 0.30479,-2.257358 1.24174,-2.051755 0.93695,0.205608 1.90009,1.457561 2.15125,2.796319 0.25115,1.338758 0.89449,2.520529 -1.24174,2.051755 z"
       sodipodi:nodetypes="sssss" />
    <path
       id="path29448-5-9-1-8-6"
       style="fill:#deaa87;stroke-width:0.162658"
       d="m 165.62842,17.027048 c -0.44642,-1.536023 1.81532,-0.524304 4.49909,0.358185 2.68376,0.882488 5.02069,2.152917 5.21968,2.837586 0.19898,0.684668 -1.81532,0.524304 -4.49909,-0.358183 -2.68376,-0.882488 -4.76598,-1.276552 -5.21968,-2.837588 z"
       sodipodi:nodetypes="sssss" />
    <path
       id="path29448-5-9-2-2-4-3"
       style="fill:#deaa87;stroke-width:0.224364"
       d="m 167.75298,31.3008 c -2.1676,0.3574 -2.10427,-2.306032 -2.54197,-5.506492 -0.43769,-3.20045 -0.009,-5.92407 0.95693,-6.083381 0.96619,-0.159307 2.10427,2.306036 2.54197,5.50649 0.4377,3.200462 1.24599,5.720167 -0.95693,6.083383 z"
       sodipodi:nodetypes="sssss" />
    <path
       id="path29448-3-4-1-5"
       style="fill:#deaa87;stroke-width:0.299499"
       d="m 165.58861,36.724971 c 1.38166,3.502891 -1.41638,3.82566 -4.53916,5.057395 -3.12278,1.231737 -6.15355,0.964503 -6.76941,-0.596888 -0.61587,-1.561386 1.41638,-3.82566 4.53915,-5.057395 3.12278,-1.231736 5.36524,-2.963061 6.76942,0.596888 z"
       sodipodi:nodetypes="sssss" />
    <path
       id="path29448-5-6-7-0-5"
       style="fill:#deaa87;stroke-width:0.138373"
       d="m 158.01404,25.51684 c 2.0495,-0.656296 2.37503,0.306713 3.26431,1.33847 0.88929,1.031759 0.86962,2.105312 -0.0439,2.397852 -0.91355,0.292539 -2.37503,-0.306717 -3.26432,-1.338473 -0.88928,-1.031759 -2.03894,-1.730865 0.0439,-2.397851 z"
       sodipodi:nodetypes="sssss" />
    <path
       id="path29448-5-9-1-8-6-4"
       style="fill:#deaa87;stroke-width:0.162658"
       d="m 154.54275,33.293994 c 1.15719,1.104337 -1.3068,1.364762 -4.0709,1.948812 -2.7641,0.584049 -5.42299,0.658468 -5.9388,0.166222 -0.5158,-0.492249 1.3068,-1.364759 4.0709,-1.94881 2.7641,-0.584052 4.76276,-1.288539 5.9388,-0.166222 z"
       sodipodi:nodetypes="sssss" />
    <path
       id="path29448-5-9-2-2-4-3-7"
       style="fill:#deaa87;stroke-width:0.224364"
       d="m 145.53971,22.015735 c 1.69526,-1.397265 2.97756,0.93803 4.96277,3.486252 1.98521,2.548216 2.98198,5.118837 2.22633,5.741666 -0.75566,0.622819 -2.97756,-0.938033 -4.96278,-3.486248 -1.98522,-2.548225 -3.94919,-4.321652 -2.22632,-5.74167 z"
       sodipodi:nodetypes="sssss" />
    <path
       id="path29448-3-4-1-5-6"
       style="fill:#deaa87;stroke-width:0.299499"
       d="m 93.002059,39.555967 c -3.617161,-1.046618 -2.162986,-3.458801 -1.229943,-6.683444 0.933043,-3.224647 2.996469,-5.460549 4.608793,-4.994027 1.612321,0.466521 2.162985,3.458803 1.229942,6.683446 -0.933043,3.224645 -0.932713,6.057688 -4.608792,4.994025 z"
       sodipodi:nodetypes="sssss" />
    <path
       id="path29448-5-6-7-0-5-5"
       style="fill:#deaa87;stroke-width:0.138373"
       d="m 106.50279,40.408325 c -0.73277,2.023419 -1.694,1.692687 -3.05413,1.766222 -1.36013,0.07354 -2.19794,-0.598003 -1.87132,-1.499927 0.32663,-0.901926 1.69401,-1.692688 3.05414,-1.766228 1.36012,-0.07352 2.61601,-0.556442 1.87132,1.499927 z"
       sodipodi:nodetypes="sssss" />
    <path
       id="path29448-5-9-1-8-6-4-6"
       style="fill:#deaa87;stroke-width:0.162658"
       d="m 102.46737,32.908364 c -1.58129,0.241271 -0.28188,-1.868374 0.94472,-4.413336 1.2266,-2.544961 2.79234,-4.695234 3.49718,-4.80278 0.70484,-0.107531 0.28187,1.868376 -0.94473,4.413334 -1.22659,2.544965 -1.89015,4.557581 -3.49717,4.802782 z"
       sodipodi:nodetypes="sssss" />
    <path
       id="path29448-5-9-2-2-4-3-7-9"
       style="fill:#deaa87;stroke-width:0.224364"
       d="m 116.89644,32.672782 c 0.0703,2.19575 -2.56192,1.783904 -5.79213,1.798392 -3.23021,0.0144 -5.87419,-0.767179 -5.90551,-1.74593 -0.0313,-0.978742 2.56193,-1.783905 5.79214,-1.798396 3.23022,-0.0144 5.83412,-0.485579 5.9055,1.745934 z"
       sodipodi:nodetypes="sssss" />
    <path
       id="path29448-2-9-5-2"
       style="fill:#deaa87;stroke-width:0.221742"
       d="m 183.90566,28.371881 c 2.75455,-0.564479 3.33519,1.355723 4.70697,3.590085 1.37176,2.234365 1.48846,4.249647 0.26064,4.501261 -1.22783,0.251614 -3.3352,-1.355719 -4.70696,-3.590087 -1.37177,-2.234362 -3.06006,-3.927576 -0.26065,-4.501259 z"
       sodipodi:nodetypes="sssss" />
    <path
       id="path29448-5-8-3-0-0"
       style="fill:#deaa87;stroke-width:0.152814"
       d="m 174.19137,29.360526 c -0.84517,-2.227079 0.23388,-2.540133 1.36384,-3.456287 1.12995,-0.916149 2.35136,-0.854097 2.72808,0.138601 0.37673,0.992704 -0.23388,2.540135 -1.36384,3.456293 -1.12995,0.916149 -1.86915,2.124743 -2.72808,-0.138601 z"
       sodipodi:nodetypes="sssss" />
    <path
       id="path29448-5-9-9-1-3-6"
       style="fill:#deaa87;stroke-width:0.179633"
       d="m 175.79058,33.731836 c 0.53284,-1.611799 2.09641,0.576594 4.15196,2.892551 2.05555,2.315954 3.52936,4.775818 3.29185,5.494265 -0.23751,0.718439 -2.09641,-0.576596 -4.15196,-2.892545 -2.05556,-2.31596 -3.83337,-3.856219 -3.29186,-5.494269 z"
       sodipodi:nodetypes="sssss" />
    <path
       id="path29448-3-2"
       style="fill:#deaa87;stroke-width:0.344643"
       d="m 205.22835,33.518313 c -2.8964,-3.222844 -0.009,-4.694316 2.86459,-7.276404 2.87312,-2.582091 6.24883,-3.510729 7.53988,-2.074171 1.29103,1.436557 0.008,4.694316 -2.86459,7.276404 -2.87312,2.582091 -4.5963,5.349506 -7.53988,2.074171 z"
       sodipodi:nodetypes="sssss" />
    <path
       id="path29448-3-4-5"
       style="fill:#deaa87;stroke-width:0.299499"
       d="m 195.65892,41.574071 c -0.74656,3.690788 -3.26986,2.439256 -6.56013,1.773711 -3.29028,-0.665551 -5.6878,-2.538734 -5.35504,-4.183875 0.33277,-1.64514 3.26984,-2.439254 6.5601,-1.773707 3.29029,0.665549 6.11379,0.432969 5.35507,4.183871 z"
       sodipodi:nodetypes="sssss" />
    <path
       id="path29448-3-4-1-5-6-4"
       style="fill:#deaa87;stroke-width:0.299499"
       d="m 215.64568,10.167008 c 3.5611,1.223821 1.98969,3.561315 0.89867,6.735991 -1.09101,3.174681 -3.26226,5.306046 -4.84959,4.760537 -1.58733,-0.545507 -1.9897,-3.561318 -0.89867,-6.735993 1.09101,-3.174679 1.23047,-6.0042879 4.84959,-4.760535 z"
       sodipodi:nodetypes="sssss" />
    <path
       id="path29448-5-9-1-8-6-4-6-7"
       style="fill:#deaa87;stroke-width:0.162658"
       d="m 205.8639,16.339475 c 1.59125,-0.162952 0.18925,1.880006 -1.16134,4.361346 -1.35069,2.481339 -3.02062,4.551737 -3.7299,4.624373 -0.7093,0.07262 -0.18926,-1.880008 1.16134,-4.361344 1.35067,-2.481342 2.11273,-4.458766 3.7299,-4.624375 z"
       sodipodi:nodetypes="sssss" />
    <path
       id="path29448-5-9-2-2-4-3-7-9-4"
       style="fill:#deaa87;stroke-width:0.224364"
       d="m 191.44077,15.862811 c 0.0381,-2.196544 2.64682,-1.655321 5.87381,-1.510406 3.22699,0.145006 5.82918,1.056089 5.81216,2.035193 -0.0171,0.979092 -2.64682,1.655321 -5.8738,1.51041 -3.22701,-0.145004 -5.85099,0.197119 -5.81217,-2.035197 z"
       sodipodi:nodetypes="sssss" />
    <path
       id="path29448-5-9-2-7-9-6-1"
       style="fill:#deaa87;stroke-width:0.24778"
       d="m 187.57767,19.454575 c -1.25649,2.173954 -3.29317,0.115867 -6.10456,-1.905559 -2.81138,-2.021426 -4.63643,-4.445661 -4.07637,-5.414687 0.56007,-0.969025 3.29316,-0.115876 6.10455,1.90555 2.8114,2.021433 5.35332,3.205334 4.07638,5.414696 z"
       sodipodi:nodetypes="sssss" />
    <path
       id="path29448-2-9-5-2-3"
       style="fill:#deaa87;stroke-width:0.221742"
       d="m 244.09676,37.21069 c -1.13711,-2.571625 0.6158,-3.547158 2.50752,-5.362528 1.89172,-1.815349 3.83614,-2.357755 4.34299,-1.211483 0.50685,1.146292 -0.6158,3.547158 -2.50752,5.362528 -1.89172,1.81535 -3.18737,3.824969 -4.34299,1.211483 z"
       sodipodi:nodetypes="sssss" />
    <path
       id="path29448-5-9-9-1-3-6-7"
       style="fill:#deaa87;stroke-width:0.179633"
       d="m 308.40996,36.363668 c -1.68823,-0.178062 0.11784,-2.171071 1.94389,-4.671934 1.82612,-2.500843 3.91649,-4.463851 4.669,-4.384481 0.75251,0.07938 -0.11784,2.171052 -1.94389,4.671913 -1.8261,2.500883 -2.95328,4.565458 -4.669,4.384502 z"
       sodipodi:nodetypes="sssss" />
    <path
       id="path29448-5-9-9-1-3-6-7-0"
       style="fill:#deaa87;stroke-width:0.179633"
       d="m 148.20647,14.761256 c -1.68823,-0.178062 0.11784,-2.171071 1.9439,-4.671934 1.82611,-2.5008434 3.91648,-4.4638508 4.66899,-4.3844814 0.75251,0.079379 -0.11784,2.1710521 -1.94389,4.6719134 -1.8261,2.500883 -2.95328,4.565458 -4.669,4.384502 z"
       sodipodi:nodetypes="sssss" />
    <path
       id="path29448-3-2-8"
       style="fill:#deaa87;stroke-width:0.344643"
       d="m 244.59319,15.281329 c -2.53353,3.515265 -4.58503,1.007089 -7.71904,-1.252443 -3.1338,-2.258605 -4.75875,-5.3597744 -3.62945,-6.9266814 1.1293,-1.5668881 4.58543,-1.0052376 7.71902,1.2524427 3.1338,2.2586057 6.20426,3.3541647 3.62947,6.9266817 z"
       sodipodi:nodetypes="sssss" />
    <path
       id="path29448-3-4-5-6"
       style="fill:#deaa87;stroke-width:0.299499"
       d="m 254.49895,22.919732 c 3.76514,-0.05502 3.07856,2.676644 3.12761,6.033187 0.0491,3.356563 -1.27171,6.097466 -2.94998,6.122 -1.67828,0.02453 -3.07855,-2.676625 -3.1276,-6.033168 -0.0491,-3.356563 -0.87649,-6.066103 2.94997,-6.122019 z"
       sodipodi:nodetypes="sssss" />
    <path
       id="path29448-3-4-1-5-6-4-8"
       style="fill:#deaa87;stroke-width:0.299499"
       d="m 219.56118,10.065658 c 0.4389,-3.7398575 3.057,-2.7012131 6.39105,-2.3099461 3.33402,0.3912653 5.87822,2.0598491 5.68258,3.7268601 -0.19565,1.667011 -3.057,2.701232 -6.39105,2.309947 -3.33402,-0.391266 -6.12861,0.07394 -5.68258,-3.726861 z"
       sodipodi:nodetypes="sssss" />
    <path
       id="path29448-5-9-1-8-6-4-6-7-8"
       style="fill:#deaa87;stroke-width:0.162658"
       d="m 227.67183,18.311877 c -0.49745,-1.520252 1.79682,-0.58455 4.50853,0.207742 2.71175,0.792387 5.0898,1.984068 5.31153,2.661695 0.22173,0.677651 -1.79681,0.584552 -4.50853,-0.207742 -2.71173,-0.792368 -4.80595,-1.116684 -5.31153,-2.661695 z"
       sodipodi:nodetypes="sssss" />
    <path
       id="path29448-5-9-2-2-4-3-7-9-4-4"
       style="fill:#deaa87;stroke-width:0.224364"
       d="m 230.27188,32.506719 c -2.15445,0.429691 -2.18012,-2.234478 -2.72444,-5.418526 -0.54425,-3.184066 -0.20711,-5.920448 0.75323,-6.111944 0.96035,-0.191458 2.18011,2.234476 2.72443,5.418524 0.54425,3.184083 1.43633,5.675371 -0.75322,6.111946 z"
       sodipodi:nodetypes="sssss" />
    <path
       id="path29448-5-9-2-7-9-6-1-3"
       style="fill:#deaa87;stroke-width:0.24778"
       d="m 236.97562,33.141032 c 2.39135,0.765684 0.81323,3.193294 -0.56442,6.370122 -1.37763,3.176807 -3.35854,5.475451 -4.42446,5.134162 -1.06593,-0.34129 -0.81324,-3.193274 0.56441,-6.370083 1.37763,-3.176845 1.99417,-5.912332 4.42447,-5.134201 z"
       sodipodi:nodetypes="sssss" />
    <path
       id="path29448-2-9-5-2-3-6"
       style="fill:#deaa87;stroke-width:0.221742"
       d="m 257.3342,17.16904 c -1.13711,-2.571626 0.6158,-3.547158 2.50752,-5.362528 1.89172,-1.8153498 3.83614,-2.3577557 4.34299,-1.211483 0.50685,1.146292 -0.6158,3.547158 -2.50752,5.362528 -1.89172,1.815349 -3.18737,3.824968 -4.34299,1.211483 z"
       sodipodi:nodetypes="sssss" />
    <path
       id="path29448-3-2-8-6"
       style="fill:#deaa87;stroke-width:0.344643"
       d="m 301.22195,33.002702 c -2.53353,3.515266 -4.58503,1.007091 -7.71904,-1.252441 -3.1338,-2.258606 -4.75875,-5.359776 -3.62945,-6.926683 1.1293,-1.566887 4.58543,-1.005235 7.71902,1.252444 3.1338,2.258605 6.20426,3.354165 3.62947,6.92668 z"
       sodipodi:nodetypes="sssss" />
    <path
       id="path29448-3-4-5-6-4"
       style="fill:#deaa87;stroke-width:0.299499"
       d="m 267.93856,24.278424 c 3.76513,-0.05502 3.07855,2.676644 3.1276,6.033186 0.0491,3.356564 -1.27171,6.097467 -2.94998,6.122001 -1.67828,0.02453 -3.07855,-2.676626 -3.1276,-6.033168 -0.0491,-3.356563 -0.87648,-6.066104 2.94998,-6.122019 z"
       sodipodi:nodetypes="sssss" />
    <path
       id="path29448-5-9-1-8-6-4-6-7-8-9"
       style="fill:#deaa87;stroke-width:0.162658"
       d="m 241.11143,19.670569 c -0.49745,-1.520251 1.79683,-0.584551 4.50853,0.207741 2.71175,0.792387 5.0898,1.984069 5.31153,2.661695 0.22173,0.677652 -1.7968,0.584553 -4.50853,-0.207741 -2.71173,-0.792368 -4.80595,-1.116685 -5.31153,-2.661695 z"
       sodipodi:nodetypes="sssss" />
    <path
       id="path29448-5-9-2-7-9-6-1-3-5"
       style="fill:#deaa87;stroke-width:0.24778"
       d="m 315.20421,7.7760138 c 2.39135,0.7656841 0.81322,3.1932952 -0.56443,6.3701222 -1.37763,3.176808 -3.35854,5.475451 -4.42445,5.134162 -1.06593,-0.34129 -0.81325,-3.193274 0.5644,-6.370083 1.37763,-3.176845 1.99418,-5.9123321 4.42448,-5.1342012 z"
       sodipodi:nodetypes="sssss" />
    <path
       id="path29448-2-9-5-2-3-1"
       style="fill:#deaa87;stroke-width:0.221742"
       d="m 275.56831,34.872249 c 1.46883,-2.397666 3.26804,-1.510434 5.83703,-0.98657 2.56898,0.523878 4.12081,1.814933 3.46609,2.883665 -0.65473,1.06874 -3.26804,1.510434 -5.83703,0.986569 -2.56898,-0.523878 -4.95883,-0.446969 -3.46609,-2.883664 z"
       sodipodi:nodetypes="sssss" />
    <path
       id="path29448-5-8-3-0-0-0-4"
       style="fill:#deaa87;stroke-width:0.152814"
       d="m 269.65628,42.643519 c -2.20402,-0.903555 -1.6958,-1.905573 -1.59333,-3.35666 0.10249,-1.451078 0.98191,-2.300923 1.96433,-1.898163 0.98244,0.402763 1.69579,1.905589 1.59334,3.356675 -0.10249,1.451078 0.27559,2.816451 -1.96434,1.898163 z"
       sodipodi:nodetypes="sssss" />
    <path
       id="path29448-3-2-8-2"
       style="fill:#deaa87;stroke-width:0.344643"
       d="m 291.69883,18.396246 c -4.33227,-0.08523 -3.43557,-3.198987 -3.35896,-7.061837 0.076,-3.8621518 1.70303,-6.9622318 3.6341,-6.9242472 1.93106,0.037996 3.43428,3.2003677 3.35896,7.0618222 -0.076,3.862152 0.76874,7.010872 -3.6341,6.924262 z"
       sodipodi:nodetypes="sssss" />
    <path
       id="path29448-3-4-5-6-0"
       style="fill:#deaa87;stroke-width:0.299499"
       d="m 293.23895,35.302928 c 2.1862,3.065911 -0.45126,4.054415 -3.18447,6.003365 -2.73319,1.948981 -5.73889,2.421049 -6.71337,1.054459 -0.97449,-1.366605 0.45125,-4.054404 3.18446,-6.003356 2.73321,-1.948979 4.49157,-4.170315 6.71338,-1.054468 z"
       sodipodi:nodetypes="sssss" />
    <path
       id="path29448-5-9-1-8-6-4-6-7-8-8"
       style="fill:#deaa87;stroke-width:0.162658"
       d="m 281.77488,10.614838 c 0.96768,-1.2736535 1.50255,1.145676 2.39275,3.826839 0.89015,2.681247 1.26209,5.315045 0.83075,5.882754 -0.43135,0.567722 -1.50255,-1.145661 -2.39277,-3.82684 -0.89014,-2.68122 -1.81417,-4.588336 -0.83073,-5.882753 z"
       sodipodi:nodetypes="sssss" />
    <path
       id="path29448-5-9-2-2-4-3-7-9-4-4-9"
       style="fill:#deaa87;stroke-width:0.224364"
       d="m 270.28008,18.657418 c -1.57852,-1.527913 0.59843,-3.063936 2.90811,-5.322213 2.30974,-2.258229 4.75239,-3.5368628 5.45598,-2.855783 0.70357,0.681117 -0.59841,3.063933 -2.90809,5.322211 -2.30975,2.258238 -3.85184,4.408661 -5.456,2.855785 z"
       sodipodi:nodetypes="sssss" />
    <path
       id="path29448-5-9-2-7-9-6-1-3-2"
       style="fill:#deaa87;stroke-width:0.24778"
       d="m 222.8932,37.756087 c 0.72993,2.402507 -2.16439,2.484737 -5.56101,3.157899 -3.39658,0.673165 -6.41383,0.350729 -6.73919,-0.720154 -0.32536,-1.070899 2.16435,-2.484739 5.56096,-3.157891 3.39662,-0.673186 5.9974,-1.721478 6.73924,0.720146 z"
       sodipodi:nodetypes="sssss" />
  </g>
</svg>
